<?xml version="1.0" encoding="UTF-8"?>
<!-- traced in-repo from user-supplied source artwork via scripts/icons/trace_icon.py (marching squares + Ramer-Douglas-Peucker + quadratic smoothing) — not a Flaticon download, no attribution/release-gate requirement — sha256: 7acd04ec66b82ad77a575e8355c3d7a7c946bfbb290240f966b454f3d3431bc8 -->
<svg xmlns="http://www.w3.org/2000/svg" id="Layer_1" data-name="Layer 1" viewBox="0 0 24 24" width="512" height="512"><path fill-rule="evenodd" d="M6.04 1.21Q6.35 1.20 6.65 1.32Q6.94 1.44 7.45 1.85Q7.96 2.26 7.98 2.41Q8.00 2.55 7.82 2.62Q7.63 2.68 7.17 2.28Q6.70 1.89 6.48 1.79Q6.25 1.69 5.96 1.72Q5.66 1.74 5.43 1.90Q5.19 2.06 4.77 2.58Q4.35 3.10 4.28 3.47Q4.21 3.84 4.30 4.08Q4.40 4.33 4.97 4.82Q5.54 5.32 5.54 5.44Q5.54 5.56 5.38 5.62Q5.22 5.69 4.59 5.13Q3.96 4.58 3.84 4.26Q3.71 3.93 3.71 3.66Q3.71 3.39 3.79 3.17Q3.86 2.95 4.28 2.41Q4.70 1.86 4.88 1.68Q5.07 1.49 5.40 1.36Q5.74 1.22 5.74 1.22Q5.74 1.22 6.04 1.21ZM3.61 1.89Q3.76 1.96 3.76 2.06Q3.76 2.16 3.65 2.25Q3.54 2.33 3.37 2.33Q3.20 2.33 2.87 2.48Q2.55 2.63 2.32 2.86Q2.09 3.10 1.94 3.37Q1.79 3.64 1.64 4.21Q1.49 4.77 1.49 5.37Q1.49 5.96 1.79 6.99Q2.09 8.03 2.55 8.92Q3.02 9.80 4.16 11.58Q5.29 13.36 5.83 14.59Q6.38 15.82 6.50 16.44Q6.62 17.06 6.62 17.97Q6.62 18.88 6.45 19.77Q6.28 20.66 6.02 21.26Q5.76 21.87 5.61 21.84Q5.46 21.82 5.43 21.71Q5.39 21.59 5.59 21.08Q5.78 20.56 5.96 19.67Q6.13 18.78 6.13 17.97Q6.13 17.15 6.01 16.54Q5.88 15.92 5.46 14.93Q5.04 13.95 3.81 12.00Q2.58 10.05 2.11 9.16Q1.64 8.28 1.42 7.66Q1.20 7.04 1.10 6.55Q1.00 6.06 1.00 5.37Q1.00 4.67 1.07 4.30Q1.15 3.93 1.32 3.52Q1.49 3.10 1.67 2.85Q1.84 2.60 2.15 2.34Q2.46 2.09 2.96 1.95Q3.47 1.81 3.47 1.81Q3.47 1.81 3.61 1.89ZM9.00 2.84Q9.21 2.83 9.43 2.92Q9.66 3.02 11.37 4.91Q13.09 6.80 13.09 7.12Q13.09 7.44 13.70 8.20Q14.32 8.97 14.32 9.11Q14.32 9.26 14.17 9.51Q14.02 9.76 14.57 10.22Q15.11 10.69 15.07 10.85Q15.03 11.01 14.89 11.01Q14.74 11.01 14.20 10.57Q13.65 10.13 13.48 10.32Q13.31 10.52 13.04 10.54Q12.76 10.57 11.98 10.13Q11.19 9.68 10.91 9.76Q10.64 9.83 8.57 8.60Q6.50 7.36 6.29 7.18Q6.08 6.99 5.98 6.75Q5.88 6.50 5.98 6.15Q6.08 5.81 7.09 4.58Q8.10 3.34 8.29 3.16Q8.47 2.97 8.63 2.91Q8.79 2.85 8.79 2.85Q8.79 2.85 9.00 2.84ZM8.76 3.43Q8.60 3.54 7.56 4.80Q6.52 6.06 6.48 6.33Q6.43 6.60 6.59 6.76Q6.75 6.92 8.79 8.13Q10.84 9.34 11.74 8.26Q12.64 7.19 12.64 7.12Q12.64 7.04 11.21 5.46Q9.78 3.89 9.52 3.63Q9.26 3.37 9.09 3.34Q8.92 3.32 8.92 3.32Q8.92 3.32 8.76 3.43ZM9.62 4.84Q9.76 4.85 10.58 5.77Q11.41 6.70 11.43 7.02Q11.46 7.34 11.15 7.72Q10.84 8.10 10.47 8.13Q10.10 8.15 9.19 7.61Q8.28 7.07 8.12 6.91Q7.96 6.75 8.04 6.61Q8.13 6.48 8.23 6.48Q8.33 6.48 9.36 7.09Q10.40 7.71 10.61 7.57Q10.82 7.44 10.89 7.34Q10.96 7.24 10.96 7.09Q10.96 6.94 10.17 6.08Q9.39 5.22 9.36 5.09Q9.34 4.97 9.41 4.90Q9.48 4.82 9.48 4.82Q9.48 4.82 9.62 4.84ZM12.16 8.56Q11.56 9.31 12.31 9.69Q13.06 10.08 13.44 9.57Q13.83 9.07 13.29 8.44Q12.76 7.81 12.76 7.81Q12.76 7.81 12.16 8.56ZM18.20 8.73Q18.59 8.74 18.67 8.86Q18.76 8.97 18.67 9.10Q18.59 9.24 18.12 9.24Q17.65 9.24 17.45 9.31Q17.25 9.39 17.09 9.32Q16.93 9.26 16.99 9.08Q17.06 8.89 17.44 8.81Q17.82 8.72 17.82 8.72Q17.82 8.72 18.20 8.73ZM19.76 9.35Q19.92 9.39 20.18 9.69Q20.43 10.00 20.56 10.25Q20.68 10.50 20.62 10.68Q20.56 10.87 20.48 10.89Q20.41 10.91 20.32 10.85Q20.24 10.79 20.07 10.45Q19.89 10.10 19.67 9.88Q19.45 9.66 19.52 9.48Q19.60 9.31 19.60 9.31Q19.60 9.31 19.76 9.35ZM16.19 9.76Q16.34 9.80 16.34 9.93Q16.34 10.05 16.19 10.27Q16.04 10.50 15.95 10.89Q15.85 11.28 15.66 11.35Q15.48 11.41 15.42 11.32Q15.35 11.24 15.40 10.94Q15.45 10.64 15.60 10.32Q15.75 10.00 15.90 9.85Q16.04 9.71 16.04 9.71Q16.04 9.71 16.19 9.76ZM20.61 11.26Q20.78 11.28 20.80 11.53Q20.83 11.78 20.66 12.30Q20.48 12.81 20.32 12.90Q20.16 12.99 20.08 12.92Q19.99 12.86 19.99 12.74Q19.99 12.62 20.11 12.37Q20.24 12.12 20.34 11.68Q20.43 11.24 20.43 11.24Q20.43 11.24 20.61 11.26ZM15.81 12.26Q15.92 12.25 16.13 12.55Q16.34 12.86 16.64 13.13Q16.93 13.41 16.87 13.57Q16.81 13.73 16.74 13.75Q16.66 13.78 16.54 13.70Q16.41 13.63 16.16 13.37Q15.90 13.11 15.75 12.86Q15.60 12.62 15.65 12.44Q15.70 12.27 15.70 12.27Q15.70 12.27 15.81 12.26ZM14.71 13.13Q14.91 13.16 14.93 13.26Q14.96 13.36 14.87 13.47Q14.79 13.58 14.22 13.73Q13.65 13.87 13.11 14.15Q12.57 14.42 12.22 14.66Q11.88 14.91 11.42 15.37Q10.96 15.82 10.90 15.96Q10.84 16.09 11.31 15.80Q11.78 15.50 12.49 15.26Q13.21 15.01 13.68 14.93Q14.15 14.86 15.03 14.86Q15.92 14.86 16.86 15.01Q17.80 15.16 18.68 15.40Q19.57 15.65 21.03 16.27Q22.48 16.88 22.42 15.98Q22.36 15.08 21.68 14.77Q21.00 14.47 20.92 14.38Q20.83 14.29 20.83 14.20Q20.83 14.10 21.01 14.03Q21.20 13.97 22.00 14.38Q22.80 14.79 22.90 16.02Q23.00 17.25 22.79 17.36Q22.58 17.48 21.25 16.88Q19.92 16.29 18.61 15.92Q17.30 15.55 16.56 15.45Q15.82 15.35 15.11 15.35Q14.39 15.35 13.78 15.45Q13.16 15.55 12.72 15.70Q12.27 15.85 11.73 16.14Q11.19 16.44 10.72 16.91Q10.25 17.38 10.10 17.40Q9.95 17.43 9.82 17.29Q9.68 17.15 9.78 16.83Q9.88 16.51 10.17 16.07Q10.47 15.63 10.93 15.14Q11.38 14.66 12.22 14.12Q13.06 13.58 13.79 13.34Q14.52 13.11 14.52 13.11Q14.52 13.11 14.71 13.13ZM19.24 13.39Q19.33 13.38 19.41 13.47Q19.50 13.55 19.50 13.65Q19.50 13.75 19.29 13.89Q19.08 14.02 18.81 14.10Q18.54 14.17 18.19 14.17Q17.85 14.17 17.78 14.11Q17.72 14.05 17.72 13.92Q17.72 13.80 17.81 13.74Q17.89 13.68 18.26 13.65Q18.63 13.63 18.89 13.52Q19.15 13.41 19.15 13.41Q19.15 13.41 19.24 13.39ZM13.05 19.07Q13.16 19.05 13.63 19.40Q14.10 19.74 14.59 19.99Q15.08 20.24 15.72 20.41Q16.37 20.58 16.98 20.61Q17.60 20.63 18.49 20.41Q19.37 20.19 20.24 19.62Q21.10 19.05 21.20 19.05Q21.30 19.05 21.38 19.16Q21.47 19.28 21.45 19.35Q21.42 19.42 21.20 19.62Q20.98 19.82 21.17 20.31Q21.37 20.80 21.35 21.17Q21.32 21.54 21.24 21.66Q21.15 21.77 20.97 21.71Q20.78 21.64 20.83 21.30Q20.88 20.95 20.72 20.52Q20.56 20.09 20.08 20.37Q19.60 20.66 19.60 21.22Q19.60 21.79 19.47 22.06Q19.35 22.33 19.21 22.45Q19.08 22.56 18.94 22.47Q18.81 22.38 18.96 22.01Q19.10 21.64 19.09 21.24Q19.08 20.83 18.36 20.98Q17.65 21.13 17.56 21.68Q17.48 22.24 17.24 22.52Q17.01 22.80 16.85 22.74Q16.69 22.68 16.69 22.56Q16.69 22.43 16.86 22.21Q17.03 21.99 17.08 21.57Q17.13 21.15 16.50 21.06Q15.87 20.98 15.69 21.56Q15.50 22.14 15.34 22.30Q15.18 22.46 15.06 22.48Q14.93 22.51 14.85 22.35Q14.76 22.19 14.98 21.89Q15.21 21.59 15.28 21.27Q15.35 20.95 15.32 20.87Q15.28 20.78 14.74 20.58Q14.20 20.39 14.01 20.74Q13.83 21.10 13.59 21.34Q13.36 21.57 13.18 21.64Q13.01 21.72 12.88 21.66Q12.74 21.59 12.74 21.47Q12.74 21.35 13.06 21.10Q13.38 20.85 13.58 20.48Q13.78 20.11 13.31 19.77Q12.84 19.42 12.81 19.35Q12.79 19.28 12.86 19.18Q12.94 19.08 12.94 19.08Q12.94 19.08 13.05 19.07Z"/></svg>
