<?xml version="1.0" encoding="UTF-8"?>
<!-- traced in-repo from user-supplied source artwork via scripts/icons/trace_icon.py (marching squares + Ramer-Douglas-Peucker + quadratic smoothing) — not a Flaticon download, no attribution/release-gate requirement — sha256: 4cac7c0b8b15d5f88856ec1ad484d02f511ee699e7d0fc38222b730e6bc372b7 -->
<svg xmlns="http://www.w3.org/2000/svg" id="Layer_1" data-name="Layer 1" viewBox="0 0 24 24" width="512" height="512"><path fill-rule="evenodd" d="M10.14 1.03Q10.82 1.04 11.40 1.17Q11.98 1.30 12.56 1.17Q13.14 1.04 13.83 1.02Q14.51 1.00 14.96 1.11Q15.42 1.21 15.64 1.35Q15.87 1.49 15.89 1.60Q15.91 1.71 15.81 1.83Q15.72 1.95 15.57 1.95Q15.42 1.95 14.94 1.79Q14.47 1.64 14.04 1.64Q13.61 1.64 12.95 1.75Q12.28 1.86 12.20 2.17Q12.13 2.48 12.45 3.19Q12.77 3.90 12.77 4.29Q12.77 4.67 12.62 5.15Q12.47 5.62 12.98 5.84Q13.48 6.07 14.00 6.41Q14.51 6.76 15.10 7.33Q15.70 7.90 16.11 8.44Q16.53 8.99 16.82 8.55Q17.11 8.11 17.87 7.36Q18.62 6.61 18.39 6.32Q18.17 6.03 17.15 5.22Q16.12 4.42 16.15 4.29Q16.17 4.16 16.35 4.08Q16.53 4.01 17.47 4.68Q18.40 5.36 18.40 4.95Q18.40 4.54 18.34 4.31Q18.27 4.07 18.10 3.77Q17.93 3.47 17.73 3.27Q17.52 3.06 17.08 2.77Q16.64 2.48 16.62 2.35Q16.60 2.22 16.67 2.13Q16.75 2.03 16.88 2.01Q17.01 1.99 17.46 2.27Q17.91 2.55 18.26 2.94Q18.62 3.34 18.83 3.92Q19.05 4.50 19.05 4.97Q19.05 5.45 18.98 5.68Q18.92 5.92 18.99 6.02Q19.07 6.11 20.77 4.44Q22.46 2.76 22.68 2.76Q22.89 2.76 22.95 2.94Q23.00 3.13 20.21 5.94Q17.41 8.76 17.20 9.19Q16.98 9.62 16.92 10.41Q16.86 11.21 16.76 11.32Q16.66 11.44 16.53 11.44Q16.40 11.44 16.31 11.34Q16.21 11.25 16.25 10.52Q16.30 9.79 16.19 9.62Q16.08 9.44 15.61 8.84Q15.14 8.24 14.78 7.89Q14.43 7.53 13.87 7.12Q13.31 6.71 12.67 6.44Q12.02 6.16 11.40 6.44Q10.78 6.71 10.28 7.06Q9.79 7.40 9.17 8.01Q8.56 8.63 8.13 9.21Q7.70 9.79 7.81 11.74Q7.92 13.70 7.75 14.08Q7.57 14.47 7.27 14.69Q6.97 14.90 7.38 15.31Q7.79 15.72 7.79 15.87Q7.79 16.02 7.65 16.11Q7.51 16.21 7.42 16.19Q7.34 16.17 6.60 15.43Q5.86 14.69 5.79 14.51Q5.73 14.34 5.62 12.52Q5.51 10.69 5.51 10.58Q5.51 10.47 5.61 10.36Q5.71 10.24 5.86 10.24Q6.01 10.24 6.08 10.33Q6.16 10.43 6.26 12.34Q6.37 14.26 6.45 14.31Q6.52 14.36 6.69 14.30Q6.87 14.23 6.96 14.16Q7.06 14.08 7.17 13.87Q7.27 13.65 7.19 11.85Q7.10 10.04 7.04 9.77Q6.97 9.49 6.76 9.10Q6.54 8.71 5.00 7.17Q3.45 5.62 3.43 5.45Q3.41 5.28 3.52 5.18Q3.64 5.08 3.79 5.12Q3.94 5.17 4.44 5.64Q4.93 6.11 5.01 6.02Q5.08 5.92 5.02 5.68Q4.95 5.45 4.97 4.87Q5.00 4.29 5.06 4.07Q5.12 3.86 5.36 3.45Q5.60 3.04 5.84 2.79Q6.09 2.55 6.76 2.14Q7.42 1.73 8.07 1.45Q8.71 1.17 9.09 1.10Q9.46 1.02 9.46 1.02Q9.46 1.02 10.14 1.03ZM8.91 1.84Q8.28 2.03 7.38 2.55Q6.48 3.06 6.19 3.40Q5.90 3.73 5.77 4.03Q5.64 4.33 5.63 4.86Q5.62 5.38 6.50 4.72Q7.38 4.05 7.51 4.03Q7.64 4.01 7.76 4.13Q7.88 4.24 7.88 4.33Q7.88 4.42 7.78 4.53Q7.68 4.65 6.76 5.34Q5.83 6.03 5.61 6.30Q5.38 6.56 6.11 7.32Q6.84 8.07 7.16 8.53Q7.47 8.99 7.89 8.47Q8.30 7.94 8.85 7.41Q9.40 6.89 10.00 6.48Q10.60 6.07 11.16 5.83Q11.72 5.60 11.90 5.20Q12.09 4.80 12.11 4.39Q12.13 3.99 11.87 3.51Q11.61 3.04 11.55 2.80Q11.48 2.57 11.53 2.22Q11.57 1.88 11.17 1.78Q10.78 1.69 10.15 1.67Q9.53 1.64 9.53 1.64Q9.53 1.64 8.91 1.84ZM1.35 2.75Q1.54 2.76 2.21 3.44Q2.89 4.12 2.93 4.27Q2.98 4.42 2.88 4.53Q2.78 4.65 2.61 4.63Q2.44 4.61 1.76 3.93Q1.09 3.26 1.04 3.08Q1.00 2.91 1.09 2.83Q1.17 2.74 1.17 2.74Q1.17 2.74 1.35 2.75ZM1.31 8.32Q1.45 8.30 2.60 9.48Q3.75 10.65 3.86 10.99Q3.96 11.33 4.14 12.75Q4.31 14.17 4.44 14.45Q4.57 14.73 6.19 16.35Q7.81 17.97 8.03 18.02Q8.24 18.06 8.38 17.94Q8.52 17.82 8.54 17.65Q8.56 17.48 8.41 17.29Q8.26 17.09 8.24 16.98Q8.22 16.88 8.32 16.76Q8.41 16.64 8.50 16.62Q8.58 16.60 9.64 17.39Q10.69 18.19 11.12 18.38Q11.55 18.57 11.91 18.60Q12.28 18.62 12.79 18.40Q13.31 18.19 13.87 17.80Q14.43 17.41 15.73 16.16Q17.03 14.90 16.73 14.69Q16.43 14.47 16.28 14.19Q16.12 13.91 16.10 13.50Q16.08 13.10 16.16 12.74Q16.23 12.39 16.40 12.37Q16.58 12.34 16.67 12.44Q16.77 12.54 16.75 13.07Q16.73 13.61 16.83 13.85Q16.94 14.08 17.12 14.20Q17.31 14.32 17.45 14.33Q17.59 14.34 17.69 12.54Q17.80 10.73 17.84 10.54Q17.89 10.35 18.03 10.27Q18.17 10.20 18.33 10.33Q18.49 10.47 18.36 12.49Q18.23 14.51 16.88 15.91Q15.52 17.31 15.48 17.39Q15.44 17.48 15.46 17.65Q15.48 17.82 15.62 17.94Q15.76 18.06 15.97 18.02Q16.19 17.97 17.81 16.35Q19.43 14.73 19.56 14.45Q19.69 14.17 19.86 12.75Q20.04 11.33 20.14 10.99Q20.25 10.65 21.40 9.48Q22.55 8.30 22.68 8.30Q22.81 8.30 22.90 8.42Q23.00 8.54 22.98 8.67Q22.96 8.80 21.86 9.92Q20.77 11.03 20.55 12.64Q20.34 14.26 20.14 14.69Q19.95 15.12 18.20 16.84Q16.45 18.57 16.28 18.64Q16.10 18.70 15.76 18.66Q15.42 18.62 15.23 18.48Q15.05 18.34 14.93 18.13Q14.81 17.93 14.59 18.09Q14.36 18.25 14.36 18.98Q14.36 19.71 14.52 19.96Q14.69 20.21 14.86 20.29Q15.03 20.38 16.60 20.62Q18.17 20.85 18.49 20.96Q18.81 21.07 19.32 21.46Q19.82 21.86 20.04 22.23Q20.25 22.59 20.23 22.72Q20.21 22.85 20.11 22.92Q20.01 23.00 19.88 22.98Q19.76 22.96 19.39 22.46Q19.03 21.97 18.64 21.75Q18.25 21.54 16.62 21.28Q14.99 21.02 14.71 20.92Q14.43 20.81 14.22 20.63Q14.02 20.44 13.91 20.25Q13.80 20.06 13.75 19.38Q13.70 18.70 13.01 18.98Q12.32 19.26 11.89 19.24Q11.46 19.22 10.88 18.96Q10.30 18.70 10.25 19.38Q10.20 20.06 10.09 20.25Q9.98 20.44 9.78 20.63Q9.57 20.81 9.29 20.92Q9.01 21.02 7.38 21.28Q5.75 21.54 5.36 21.75Q4.97 21.97 4.61 22.46Q4.24 22.96 4.07 22.96Q3.90 22.96 3.83 22.77Q3.75 22.59 3.86 22.38Q3.96 22.16 4.28 21.81Q4.59 21.45 4.85 21.28Q5.10 21.11 5.47 20.98Q5.83 20.85 7.40 20.62Q8.97 20.38 9.14 20.29Q9.31 20.21 9.48 19.96Q9.64 19.71 9.64 18.98Q9.64 18.25 9.41 18.09Q9.19 17.93 9.07 18.13Q8.95 18.34 8.77 18.48Q8.58 18.62 8.24 18.66Q7.90 18.70 7.72 18.64Q7.55 18.57 5.80 16.84Q4.05 15.12 3.86 14.69Q3.66 14.26 3.45 12.64Q3.23 11.03 2.14 9.92Q1.04 8.80 1.02 8.67Q1.00 8.54 1.09 8.43Q1.17 8.33 1.17 8.33Q1.17 8.33 1.31 8.32ZM9.80 9.82Q10.09 9.81 10.50 9.92Q10.90 10.02 11.02 10.10Q11.14 10.17 11.16 10.35Q11.18 10.52 11.09 10.61Q10.99 10.71 10.54 10.58Q10.09 10.45 9.81 10.45Q9.53 10.45 8.97 10.58Q8.41 10.71 8.32 10.61Q8.22 10.52 8.22 10.39Q8.22 10.26 8.32 10.16Q8.41 10.07 8.96 9.95Q9.51 9.83 9.51 9.83Q9.51 9.83 9.80 9.82ZM14.18 9.82Q14.47 9.81 15.03 9.94Q15.59 10.07 15.68 10.16Q15.78 10.26 15.78 10.39Q15.78 10.52 15.68 10.61Q15.59 10.71 15.48 10.71Q15.37 10.71 14.92 10.58Q14.47 10.45 14.19 10.45Q13.91 10.45 13.46 10.58Q13.01 10.71 12.89 10.55Q12.77 10.39 12.82 10.28Q12.86 10.17 13.38 10.00Q13.89 9.83 13.89 9.83Q13.89 9.83 14.18 9.82ZM8.92 11.97Q9.23 12.04 9.55 12.04Q9.87 12.04 10.17 11.96Q10.47 11.87 10.59 11.95Q10.71 12.02 10.73 12.15Q10.75 12.28 10.66 12.40Q10.56 12.52 10.43 12.56Q10.30 12.60 9.74 12.64Q9.19 12.69 8.86 12.60Q8.54 12.52 8.47 12.44Q8.39 12.37 8.37 12.24Q8.35 12.11 8.48 12.00Q8.61 11.89 8.61 11.89Q8.61 11.89 8.92 11.97ZM13.82 11.97Q14.13 12.04 14.45 12.04Q14.77 12.04 15.07 11.96Q15.37 11.87 15.49 11.95Q15.61 12.02 15.63 12.15Q15.65 12.28 15.56 12.40Q15.46 12.52 15.33 12.56Q15.20 12.60 14.64 12.64Q14.08 12.69 13.76 12.60Q13.44 12.52 13.36 12.44Q13.29 12.37 13.27 12.24Q13.25 12.11 13.38 12.00Q13.50 11.89 13.50 11.89Q13.50 11.89 13.82 11.97ZM11.65 14.05Q12.24 14.11 12.52 14.04Q12.79 13.98 12.89 14.07Q12.99 14.17 12.99 14.30Q12.99 14.43 12.89 14.52Q12.79 14.62 12.54 14.69Q12.28 14.75 11.83 14.73Q11.38 14.71 11.23 14.66Q11.08 14.62 10.98 14.52Q10.88 14.43 10.88 14.30Q10.88 14.17 10.97 14.08Q11.05 14.00 11.05 14.00Q11.05 14.00 11.65 14.05ZM10.85 15.79Q11.16 15.87 11.61 15.78Q12.06 15.70 12.39 15.78Q12.71 15.87 12.99 15.78Q13.27 15.70 13.41 15.79Q13.55 15.89 13.57 15.97Q13.59 16.06 13.49 16.20Q13.40 16.34 13.22 16.40Q13.05 16.47 12.86 16.49Q12.67 16.51 12.26 16.43Q11.85 16.34 11.48 16.43Q11.12 16.51 10.82 16.45Q10.52 16.38 10.40 16.29Q10.28 16.19 10.28 16.04Q10.28 15.89 10.41 15.80Q10.54 15.72 10.54 15.72Q10.54 15.72 10.85 15.79Z"/></svg>
